<svg xmlns="http://www.w3.org/2000/svg" width="56" height="52" fill="none"><g stroke="#5C5A53" stroke-linecap="round" clip-path="url(#a)"><path d="M27.492 47.966h-9.726C8.23 47.966.5 40.236.5 30.699v-9.567c0-.34.275-.617.615-.617h43.027c.34 0 .616.277.616.617v9.567c0 9.537-7.73 17.267-17.266 17.267Zm-19.37 3.462H38.03"/><path d="m44.83 24.173 7 .011a2.996 2.996 0 0 1 2.994 2.996v2.41c0 5.778-4.67 10.468-10.447 10.494l-2.11.01M18.203 14.666c0-2.284 1.701-2.284 1.701-4.568 0-2.285-1.7-2.285-1.7-4.571 0-2.285 1.7-2.285 1.7-4.571m6.032 13.71c0-2.284 1.701-2.284 1.701-4.568 0-2.285-1.701-2.285-1.701-4.571 0-2.285 1.701-2.285 1.701-4.571"/></g><defs><clipPath id="a"><path fill="#fff" d="M0 0h56v52H0z"/></clipPath></defs></svg>