<svg xmlns="http://www.w3.org/2000/svg" width="217" height="194" fill="none"><path stroke="#5C5A53" stroke-width="4" d="M0 130.503h31.5a1 1 0 0 1 1 1v9m-32.5 51h31.5a1 1 0 0 0 1-1v-9m0-41s19.603-12 33.5-12c26.5 0 63.5 6 65.5 6.5s4.897 4.843 5 9.5c.106 4.821-5 11-5 11m-99-15v41m99-26h-44m44 0s47-21.5 53.5-23 11.96 1.985 13.5 6c1.119 2.917 0 6-1 7-.972.972-77.999 42.097-82.312 44.399a.88.88 0 0 1-.423.106c-1.547.034-10.406.214-16.265-.005-17.937-.672-27.661-4.511-45.5-6.5-7.994-.892-20.5-2-20.5-2m14-86.5H31.618a.967.967 0 0 0-.967 1.108c.372 2.471 1.482 8.486 3.849 11.892 1.837 2.644 5.717 5.565 6.745 6.316a.961.961 0 0 0 .572.184h157.501c.12 0 .237-.021.349-.065 1.116-.439 7.522-3.057 10.333-6.435 2.691-3.234 3.927-9.374 4.336-11.886a.963.963 0 0 0-.963-1.114H197.5m-151 0h151m-151 0s4.662-68.993 68-73.743m83 73.743s-2.664-67.097-66-73.51m-17-.233c2.258-.17 4.59-.257 7-.257 3.491 0 6.822.169 10 .49m-17-.233s-2.75-4.897-2.5-8.257c.441-5.922 4.563-10.862 10.5-11 6.073-.141 10.264 4.97 11 11 .413 3.381-2 8.49-2 8.49"/></svg>